<mxfile host="app.diagrams.net" modified="2023-12-09T10:11:10.865Z" agent="Mozilla/5.0 (Windows NT 10.0; Win64; x64) AppleWebKit/537.36 (KHTML, like Gecko) Chrome/119.0.0.0 Safari/537.36" etag="gAOYZ61zi1x7pPAFSrTO" version="22.1.7" type="github" pages="2">
  <diagram name="Page-1" id="TrDp-VEFuslSmaLqQFNx">
    <mxGraphModel dx="1834" dy="800" grid="0" gridSize="10" guides="1" tooltips="1" connect="1" arrows="1" fold="1" page="0" pageScale="1" pageWidth="827" pageHeight="1169" math="0" shadow="0">
      <root>
        <mxCell id="0" />
        <mxCell id="1" parent="0" />
        <mxCell id="zRfTMLekbxmqp7DmtpUP-255" value="1. Data Analyst and Preprocessing" style="rounded=0;whiteSpace=wrap;html=1;fontSize=16;fillColor=#f5f5f5;strokeColor=#666666;fontColor=#333333;" vertex="1" parent="1">
          <mxGeometry x="-2" y="132" width="170" height="92" as="geometry" />
        </mxCell>
        <mxCell id="zRfTMLekbxmqp7DmtpUP-258" value="Dataset2" style="rounded=0;whiteSpace=wrap;html=1;fontSize=16;fillColor=#dae8fc;strokeColor=#6c8ebf;" vertex="1" parent="1">
          <mxGeometry x="-331" y="4" width="160" height="80" as="geometry" />
        </mxCell>
        <mxCell id="zRfTMLekbxmqp7DmtpUP-259" value="Dataset2" style="rounded=0;whiteSpace=wrap;html=1;fontSize=16;fillColor=#dae8fc;strokeColor=#6c8ebf;" vertex="1" parent="1">
          <mxGeometry x="-331" y="93" width="160" height="80" as="geometry" />
        </mxCell>
        <mxCell id="zRfTMLekbxmqp7DmtpUP-260" value="Dataset3" style="rounded=0;whiteSpace=wrap;html=1;fontSize=16;fillColor=#dae8fc;strokeColor=#6c8ebf;" vertex="1" parent="1">
          <mxGeometry x="-327" y="182" width="160" height="80" as="geometry" />
        </mxCell>
        <mxCell id="zRfTMLekbxmqp7DmtpUP-261" value="Dataset4" style="rounded=0;whiteSpace=wrap;html=1;fontSize=16;fillColor=#dae8fc;strokeColor=#6c8ebf;" vertex="1" parent="1">
          <mxGeometry x="-327" y="271" width="160" height="80" as="geometry" />
        </mxCell>
        <mxCell id="zRfTMLekbxmqp7DmtpUP-262" value="" style="endArrow=classic;html=1;rounded=0;fontSize=12;startSize=8;endSize=8;curved=1;exitX=1;exitY=0.5;exitDx=0;exitDy=0;" edge="1" parent="1" source="zRfTMLekbxmqp7DmtpUP-258">
          <mxGeometry width="50" height="50" relative="1" as="geometry">
            <mxPoint x="-124" y="52" as="sourcePoint" />
            <mxPoint x="-74" y="42" as="targetPoint" />
          </mxGeometry>
        </mxCell>
        <mxCell id="zRfTMLekbxmqp7DmtpUP-263" value="" style="endArrow=none;html=1;rounded=0;fontSize=12;startSize=8;endSize=8;curved=1;" edge="1" parent="1">
          <mxGeometry width="50" height="50" relative="1" as="geometry">
            <mxPoint x="-78" y="310" as="sourcePoint" />
            <mxPoint x="-78" y="41" as="targetPoint" />
          </mxGeometry>
        </mxCell>
        <mxCell id="zRfTMLekbxmqp7DmtpUP-264" value="" style="endArrow=classic;html=1;rounded=0;fontSize=12;startSize=8;endSize=8;curved=1;exitX=1;exitY=0.5;exitDx=0;exitDy=0;" edge="1" parent="1" source="zRfTMLekbxmqp7DmtpUP-261">
          <mxGeometry width="50" height="50" relative="1" as="geometry">
            <mxPoint x="-151" y="330" as="sourcePoint" />
            <mxPoint x="-76" y="311" as="targetPoint" />
          </mxGeometry>
        </mxCell>
        <mxCell id="zRfTMLekbxmqp7DmtpUP-265" value="" style="endArrow=classic;html=1;rounded=0;fontSize=12;startSize=8;endSize=8;curved=1;" edge="1" parent="1" source="zRfTMLekbxmqp7DmtpUP-259">
          <mxGeometry width="50" height="50" relative="1" as="geometry">
            <mxPoint x="-171" y="183" as="sourcePoint" />
            <mxPoint x="-74" y="135" as="targetPoint" />
          </mxGeometry>
        </mxCell>
        <mxCell id="zRfTMLekbxmqp7DmtpUP-266" value="" style="endArrow=classic;html=1;rounded=0;fontSize=12;startSize=8;endSize=8;curved=1;exitX=1;exitY=0.5;exitDx=0;exitDy=0;" edge="1" parent="1" source="zRfTMLekbxmqp7DmtpUP-260">
          <mxGeometry width="50" height="50" relative="1" as="geometry">
            <mxPoint x="-146" y="240" as="sourcePoint" />
            <mxPoint x="-76" y="222" as="targetPoint" />
          </mxGeometry>
        </mxCell>
        <mxCell id="zRfTMLekbxmqp7DmtpUP-267" value="" style="endArrow=classic;html=1;rounded=0;fontSize=12;startSize=8;endSize=8;curved=1;entryX=0;entryY=0.5;entryDx=0;entryDy=0;" edge="1" parent="1">
          <mxGeometry width="50" height="50" relative="1" as="geometry">
            <mxPoint x="-73" y="178" as="sourcePoint" />
            <mxPoint x="-4" y="177.5" as="targetPoint" />
          </mxGeometry>
        </mxCell>
        <mxCell id="zRfTMLekbxmqp7DmtpUP-268" value="" style="endArrow=classic;html=1;rounded=0;fontSize=12;startSize=8;endSize=8;curved=1;exitX=1;exitY=0.5;exitDx=0;exitDy=0;entryX=0;entryY=0.5;entryDx=0;entryDy=0;" edge="1" parent="1" source="zRfTMLekbxmqp7DmtpUP-255" target="zRfTMLekbxmqp7DmtpUP-352">
          <mxGeometry width="50" height="50" relative="1" as="geometry">
            <mxPoint x="173" y="179" as="sourcePoint" />
            <mxPoint x="253" y="182" as="targetPoint" />
          </mxGeometry>
        </mxCell>
        <mxCell id="zRfTMLekbxmqp7DmtpUP-352" value="2.Neural Network" style="rounded=0;whiteSpace=wrap;html=1;fontSize=16;verticalAlign=top;" vertex="1" parent="1">
          <mxGeometry x="265" y="87" width="269" height="186" as="geometry" />
        </mxCell>
        <mxCell id="zRfTMLekbxmqp7DmtpUP-353" value="" style="ellipse;whiteSpace=wrap;html=1;aspect=fixed;fontSize=16;fillColor=#dae8fc;strokeColor=#6c8ebf;" vertex="1" parent="1">
          <mxGeometry x="298" y="136" width="22" height="22" as="geometry" />
        </mxCell>
        <mxCell id="zRfTMLekbxmqp7DmtpUP-354" value="" style="ellipse;whiteSpace=wrap;html=1;aspect=fixed;fontSize=16;fillColor=#dae8fc;strokeColor=#6c8ebf;" vertex="1" parent="1">
          <mxGeometry x="298" y="162" width="22" height="22" as="geometry" />
        </mxCell>
        <mxCell id="zRfTMLekbxmqp7DmtpUP-355" value="" style="ellipse;whiteSpace=wrap;html=1;aspect=fixed;fontSize=16;fillColor=#dae8fc;strokeColor=#6c8ebf;" vertex="1" parent="1">
          <mxGeometry x="298" y="188" width="22" height="22" as="geometry" />
        </mxCell>
        <mxCell id="zRfTMLekbxmqp7DmtpUP-356" value="" style="ellipse;whiteSpace=wrap;html=1;aspect=fixed;fontSize=16;fillColor=#dae8fc;strokeColor=#6c8ebf;" vertex="1" parent="1">
          <mxGeometry x="298" y="214" width="22" height="22" as="geometry" />
        </mxCell>
        <mxCell id="zRfTMLekbxmqp7DmtpUP-357" value="" style="ellipse;whiteSpace=wrap;html=1;aspect=fixed;fontSize=16;fillColor=#dae8fc;strokeColor=#6c8ebf;" vertex="1" parent="1">
          <mxGeometry x="298" y="110" width="22" height="22" as="geometry" />
        </mxCell>
        <mxCell id="zRfTMLekbxmqp7DmtpUP-358" value="" style="ellipse;whiteSpace=wrap;html=1;aspect=fixed;fontSize=16;fillColor=#dae8fc;strokeColor=#6c8ebf;" vertex="1" parent="1">
          <mxGeometry x="298" y="239" width="22" height="22" as="geometry" />
        </mxCell>
        <mxCell id="zRfTMLekbxmqp7DmtpUP-359" value="" style="ellipse;whiteSpace=wrap;html=1;aspect=fixed;fontSize=16;fillColor=#ffe6cc;strokeColor=#d79b00;" vertex="1" parent="1">
          <mxGeometry x="373" y="136" width="22" height="22" as="geometry" />
        </mxCell>
        <mxCell id="zRfTMLekbxmqp7DmtpUP-360" value="" style="ellipse;whiteSpace=wrap;html=1;aspect=fixed;fontSize=16;fillColor=#ffe6cc;strokeColor=#d79b00;" vertex="1" parent="1">
          <mxGeometry x="373" y="162" width="22" height="22" as="geometry" />
        </mxCell>
        <mxCell id="zRfTMLekbxmqp7DmtpUP-361" value="" style="ellipse;whiteSpace=wrap;html=1;aspect=fixed;fontSize=16;fillColor=#ffe6cc;strokeColor=#d79b00;" vertex="1" parent="1">
          <mxGeometry x="373" y="188" width="22" height="22" as="geometry" />
        </mxCell>
        <mxCell id="zRfTMLekbxmqp7DmtpUP-362" value="" style="ellipse;whiteSpace=wrap;html=1;aspect=fixed;fontSize=16;fillColor=#ffe6cc;strokeColor=#d79b00;" vertex="1" parent="1">
          <mxGeometry x="373" y="214" width="22" height="22" as="geometry" />
        </mxCell>
        <mxCell id="zRfTMLekbxmqp7DmtpUP-363" value="" style="endArrow=none;html=1;rounded=0;fontSize=12;startSize=8;endSize=8;curved=1;exitX=1;exitY=0.5;exitDx=0;exitDy=0;entryX=0;entryY=0.5;entryDx=0;entryDy=0;" edge="1" parent="1" source="zRfTMLekbxmqp7DmtpUP-357" target="zRfTMLekbxmqp7DmtpUP-359">
          <mxGeometry width="50" height="50" relative="1" as="geometry">
            <mxPoint x="407" y="105" as="sourcePoint" />
            <mxPoint x="457" y="55" as="targetPoint" />
          </mxGeometry>
        </mxCell>
        <mxCell id="zRfTMLekbxmqp7DmtpUP-364" value="" style="endArrow=none;html=1;rounded=0;fontSize=12;startSize=8;endSize=8;curved=1;entryX=0;entryY=0.5;entryDx=0;entryDy=0;exitX=1;exitY=0.5;exitDx=0;exitDy=0;" edge="1" parent="1" source="zRfTMLekbxmqp7DmtpUP-358" target="zRfTMLekbxmqp7DmtpUP-359">
          <mxGeometry width="50" height="50" relative="1" as="geometry">
            <mxPoint x="309" y="245" as="sourcePoint" />
            <mxPoint x="359" y="195" as="targetPoint" />
          </mxGeometry>
        </mxCell>
        <mxCell id="zRfTMLekbxmqp7DmtpUP-365" value="" style="endArrow=none;html=1;rounded=0;fontSize=12;startSize=8;endSize=8;curved=1;entryX=0;entryY=0.5;entryDx=0;entryDy=0;exitX=1;exitY=0.5;exitDx=0;exitDy=0;" edge="1" parent="1" source="zRfTMLekbxmqp7DmtpUP-356" target="zRfTMLekbxmqp7DmtpUP-359">
          <mxGeometry width="50" height="50" relative="1" as="geometry">
            <mxPoint x="330" y="260" as="sourcePoint" />
            <mxPoint x="383" y="157" as="targetPoint" />
          </mxGeometry>
        </mxCell>
        <mxCell id="zRfTMLekbxmqp7DmtpUP-366" value="" style="endArrow=none;html=1;rounded=0;fontSize=12;startSize=8;endSize=8;curved=1;entryX=1;entryY=0.5;entryDx=0;entryDy=0;exitX=0;exitY=0.5;exitDx=0;exitDy=0;" edge="1" parent="1" source="zRfTMLekbxmqp7DmtpUP-360" target="zRfTMLekbxmqp7DmtpUP-353">
          <mxGeometry width="50" height="50" relative="1" as="geometry">
            <mxPoint x="340" y="270" as="sourcePoint" />
            <mxPoint x="393" y="167" as="targetPoint" />
          </mxGeometry>
        </mxCell>
        <mxCell id="zRfTMLekbxmqp7DmtpUP-367" value="" style="endArrow=none;html=1;rounded=0;fontSize=12;startSize=8;endSize=8;curved=1;entryX=0;entryY=0.5;entryDx=0;entryDy=0;exitX=1;exitY=0.5;exitDx=0;exitDy=0;" edge="1" parent="1" source="zRfTMLekbxmqp7DmtpUP-358" target="zRfTMLekbxmqp7DmtpUP-360">
          <mxGeometry width="50" height="50" relative="1" as="geometry">
            <mxPoint x="350" y="280" as="sourcePoint" />
            <mxPoint x="403" y="177" as="targetPoint" />
          </mxGeometry>
        </mxCell>
        <mxCell id="zRfTMLekbxmqp7DmtpUP-368" value="" style="endArrow=none;html=1;rounded=0;fontSize=12;startSize=8;endSize=8;curved=1;entryX=0;entryY=0.5;entryDx=0;entryDy=0;exitX=1;exitY=0.5;exitDx=0;exitDy=0;" edge="1" parent="1" source="zRfTMLekbxmqp7DmtpUP-354" target="zRfTMLekbxmqp7DmtpUP-361">
          <mxGeometry width="50" height="50" relative="1" as="geometry">
            <mxPoint x="360" y="290" as="sourcePoint" />
            <mxPoint x="413" y="187" as="targetPoint" />
          </mxGeometry>
        </mxCell>
        <mxCell id="zRfTMLekbxmqp7DmtpUP-369" value="" style="endArrow=none;html=1;rounded=0;fontSize=12;startSize=8;endSize=8;curved=1;entryX=0;entryY=0.5;entryDx=0;entryDy=0;exitX=1;exitY=0.5;exitDx=0;exitDy=0;" edge="1" parent="1" source="zRfTMLekbxmqp7DmtpUP-355" target="zRfTMLekbxmqp7DmtpUP-361">
          <mxGeometry width="50" height="50" relative="1" as="geometry">
            <mxPoint x="370" y="300" as="sourcePoint" />
            <mxPoint x="423" y="197" as="targetPoint" />
          </mxGeometry>
        </mxCell>
        <mxCell id="zRfTMLekbxmqp7DmtpUP-370" value="" style="endArrow=none;html=1;rounded=0;fontSize=12;startSize=8;endSize=8;curved=1;entryX=0;entryY=0.5;entryDx=0;entryDy=0;exitX=1;exitY=0.5;exitDx=0;exitDy=0;" edge="1" parent="1" source="zRfTMLekbxmqp7DmtpUP-356" target="zRfTMLekbxmqp7DmtpUP-362">
          <mxGeometry width="50" height="50" relative="1" as="geometry">
            <mxPoint x="380" y="310" as="sourcePoint" />
            <mxPoint x="433" y="207" as="targetPoint" />
          </mxGeometry>
        </mxCell>
        <mxCell id="zRfTMLekbxmqp7DmtpUP-371" value="" style="endArrow=none;html=1;rounded=0;fontSize=12;startSize=8;endSize=8;curved=1;entryX=0;entryY=0.5;entryDx=0;entryDy=0;exitX=1;exitY=0.5;exitDx=0;exitDy=0;" edge="1" parent="1" source="zRfTMLekbxmqp7DmtpUP-358" target="zRfTMLekbxmqp7DmtpUP-362">
          <mxGeometry width="50" height="50" relative="1" as="geometry">
            <mxPoint x="390" y="320" as="sourcePoint" />
            <mxPoint x="443" y="217" as="targetPoint" />
          </mxGeometry>
        </mxCell>
        <mxCell id="zRfTMLekbxmqp7DmtpUP-372" value="" style="endArrow=none;html=1;rounded=0;fontSize=12;startSize=8;endSize=8;curved=1;entryX=1;entryY=0.5;entryDx=0;entryDy=0;exitX=0;exitY=0.5;exitDx=0;exitDy=0;" edge="1" parent="1" source="zRfTMLekbxmqp7DmtpUP-362" target="zRfTMLekbxmqp7DmtpUP-357">
          <mxGeometry width="50" height="50" relative="1" as="geometry">
            <mxPoint x="400" y="330" as="sourcePoint" />
            <mxPoint x="453" y="227" as="targetPoint" />
          </mxGeometry>
        </mxCell>
        <mxCell id="zRfTMLekbxmqp7DmtpUP-373" value="" style="endArrow=none;html=1;rounded=0;fontSize=12;startSize=8;endSize=8;curved=1;entryX=1;entryY=0.5;entryDx=0;entryDy=0;exitX=0;exitY=0.5;exitDx=0;exitDy=0;" edge="1" parent="1" source="zRfTMLekbxmqp7DmtpUP-360" target="zRfTMLekbxmqp7DmtpUP-357">
          <mxGeometry width="50" height="50" relative="1" as="geometry">
            <mxPoint x="410" y="340" as="sourcePoint" />
            <mxPoint x="463" y="237" as="targetPoint" />
          </mxGeometry>
        </mxCell>
        <mxCell id="zRfTMLekbxmqp7DmtpUP-374" value="" style="endArrow=none;html=1;rounded=0;fontSize=12;startSize=8;endSize=8;curved=1;entryX=1;entryY=0.5;entryDx=0;entryDy=0;exitX=0;exitY=0.5;exitDx=0;exitDy=0;" edge="1" parent="1" source="zRfTMLekbxmqp7DmtpUP-362" target="zRfTMLekbxmqp7DmtpUP-353">
          <mxGeometry width="50" height="50" relative="1" as="geometry">
            <mxPoint x="420" y="350" as="sourcePoint" />
            <mxPoint x="473" y="247" as="targetPoint" />
          </mxGeometry>
        </mxCell>
        <mxCell id="zRfTMLekbxmqp7DmtpUP-375" value="" style="endArrow=none;html=1;rounded=0;fontSize=12;startSize=8;endSize=8;curved=1;entryX=1;entryY=0.5;entryDx=0;entryDy=0;exitX=0;exitY=0.5;exitDx=0;exitDy=0;" edge="1" parent="1" source="zRfTMLekbxmqp7DmtpUP-360" target="zRfTMLekbxmqp7DmtpUP-354">
          <mxGeometry width="50" height="50" relative="1" as="geometry">
            <mxPoint x="430" y="360" as="sourcePoint" />
            <mxPoint x="483" y="257" as="targetPoint" />
          </mxGeometry>
        </mxCell>
        <mxCell id="zRfTMLekbxmqp7DmtpUP-376" value="" style="endArrow=none;html=1;rounded=0;fontSize=12;startSize=8;endSize=8;curved=1;entryX=1;entryY=0.5;entryDx=0;entryDy=0;exitX=0;exitY=0.5;exitDx=0;exitDy=0;" edge="1" parent="1" source="zRfTMLekbxmqp7DmtpUP-359" target="zRfTMLekbxmqp7DmtpUP-355">
          <mxGeometry width="50" height="50" relative="1" as="geometry">
            <mxPoint x="440" y="370" as="sourcePoint" />
            <mxPoint x="493" y="267" as="targetPoint" />
          </mxGeometry>
        </mxCell>
        <mxCell id="zRfTMLekbxmqp7DmtpUP-377" value="" style="endArrow=none;html=1;rounded=0;fontSize=12;startSize=8;endSize=8;curved=1;entryX=1;entryY=0.5;entryDx=0;entryDy=0;exitX=0;exitY=0.5;exitDx=0;exitDy=0;" edge="1" parent="1" source="zRfTMLekbxmqp7DmtpUP-361" target="zRfTMLekbxmqp7DmtpUP-356">
          <mxGeometry width="50" height="50" relative="1" as="geometry">
            <mxPoint x="450" y="380" as="sourcePoint" />
            <mxPoint x="503" y="277" as="targetPoint" />
          </mxGeometry>
        </mxCell>
        <mxCell id="zRfTMLekbxmqp7DmtpUP-378" value="" style="endArrow=none;html=1;rounded=0;fontSize=12;startSize=8;endSize=8;curved=1;entryX=1;entryY=0.5;entryDx=0;entryDy=0;exitX=0;exitY=0.5;exitDx=0;exitDy=0;" edge="1" parent="1" source="zRfTMLekbxmqp7DmtpUP-361" target="zRfTMLekbxmqp7DmtpUP-357">
          <mxGeometry width="50" height="50" relative="1" as="geometry">
            <mxPoint x="390" y="320" as="sourcePoint" />
            <mxPoint x="440" y="270" as="targetPoint" />
          </mxGeometry>
        </mxCell>
        <mxCell id="zRfTMLekbxmqp7DmtpUP-379" value="" style="endArrow=none;html=1;rounded=0;fontSize=12;startSize=8;endSize=8;curved=1;entryX=1;entryY=0.5;entryDx=0;entryDy=0;exitX=0;exitY=0.5;exitDx=0;exitDy=0;" edge="1" parent="1" source="zRfTMLekbxmqp7DmtpUP-359" target="zRfTMLekbxmqp7DmtpUP-353">
          <mxGeometry width="50" height="50" relative="1" as="geometry">
            <mxPoint x="351" y="361" as="sourcePoint" />
            <mxPoint x="401" y="311" as="targetPoint" />
          </mxGeometry>
        </mxCell>
        <mxCell id="zRfTMLekbxmqp7DmtpUP-380" value="" style="endArrow=none;html=1;rounded=0;fontSize=12;startSize=8;endSize=8;curved=1;entryX=1;entryY=0.5;entryDx=0;entryDy=0;exitX=0;exitY=0.5;exitDx=0;exitDy=0;" edge="1" parent="1" source="zRfTMLekbxmqp7DmtpUP-362" target="zRfTMLekbxmqp7DmtpUP-354">
          <mxGeometry width="50" height="50" relative="1" as="geometry">
            <mxPoint x="351" y="338" as="sourcePoint" />
            <mxPoint x="401" y="288" as="targetPoint" />
          </mxGeometry>
        </mxCell>
        <mxCell id="zRfTMLekbxmqp7DmtpUP-381" value="" style="endArrow=none;html=1;rounded=0;fontSize=12;startSize=8;endSize=8;curved=1;entryX=1;entryY=0.5;entryDx=0;entryDy=0;exitX=0;exitY=0.5;exitDx=0;exitDy=0;" edge="1" parent="1" source="zRfTMLekbxmqp7DmtpUP-359" target="zRfTMLekbxmqp7DmtpUP-354">
          <mxGeometry width="50" height="50" relative="1" as="geometry">
            <mxPoint x="393" y="327" as="sourcePoint" />
            <mxPoint x="443" y="277" as="targetPoint" />
          </mxGeometry>
        </mxCell>
        <mxCell id="zRfTMLekbxmqp7DmtpUP-382" value="" style="endArrow=none;html=1;rounded=0;fontSize=12;startSize=8;endSize=8;curved=1;entryX=1;entryY=0.5;entryDx=0;entryDy=0;exitX=0;exitY=0.5;exitDx=0;exitDy=0;" edge="1" parent="1" source="zRfTMLekbxmqp7DmtpUP-362" target="zRfTMLekbxmqp7DmtpUP-355">
          <mxGeometry width="50" height="50" relative="1" as="geometry">
            <mxPoint x="294" y="359" as="sourcePoint" />
            <mxPoint x="344" y="309" as="targetPoint" />
          </mxGeometry>
        </mxCell>
        <mxCell id="zRfTMLekbxmqp7DmtpUP-383" value="" style="endArrow=none;html=1;rounded=0;fontSize=12;startSize=8;endSize=8;curved=1;entryX=1;entryY=0.5;entryDx=0;entryDy=0;exitX=0;exitY=0.5;exitDx=0;exitDy=0;" edge="1" parent="1" source="zRfTMLekbxmqp7DmtpUP-360" target="zRfTMLekbxmqp7DmtpUP-355">
          <mxGeometry width="50" height="50" relative="1" as="geometry">
            <mxPoint x="344" y="312" as="sourcePoint" />
            <mxPoint x="394" y="262" as="targetPoint" />
          </mxGeometry>
        </mxCell>
        <mxCell id="zRfTMLekbxmqp7DmtpUP-384" value="" style="endArrow=none;html=1;rounded=0;fontSize=12;startSize=8;endSize=8;curved=1;entryX=1;entryY=0.5;entryDx=0;entryDy=0;exitX=0;exitY=0.5;exitDx=0;exitDy=0;" edge="1" parent="1" source="zRfTMLekbxmqp7DmtpUP-361" target="zRfTMLekbxmqp7DmtpUP-358">
          <mxGeometry width="50" height="50" relative="1" as="geometry">
            <mxPoint x="293" y="344" as="sourcePoint" />
            <mxPoint x="343" y="294" as="targetPoint" />
          </mxGeometry>
        </mxCell>
        <mxCell id="zRfTMLekbxmqp7DmtpUP-385" value="" style="endArrow=none;html=1;rounded=0;fontSize=12;startSize=8;endSize=8;curved=1;entryX=1;entryY=0.5;entryDx=0;entryDy=0;exitX=0;exitY=0.5;exitDx=0;exitDy=0;" edge="1" parent="1" source="zRfTMLekbxmqp7DmtpUP-360" target="zRfTMLekbxmqp7DmtpUP-356">
          <mxGeometry width="50" height="50" relative="1" as="geometry">
            <mxPoint x="325" y="322" as="sourcePoint" />
            <mxPoint x="375" y="272" as="targetPoint" />
          </mxGeometry>
        </mxCell>
        <mxCell id="zRfTMLekbxmqp7DmtpUP-386" value="" style="endArrow=none;html=1;rounded=0;fontSize=12;startSize=8;endSize=8;curved=1;entryX=1;entryY=0.5;entryDx=0;entryDy=0;exitX=0;exitY=0.5;exitDx=0;exitDy=0;" edge="1" parent="1" source="zRfTMLekbxmqp7DmtpUP-361" target="zRfTMLekbxmqp7DmtpUP-353">
          <mxGeometry width="50" height="50" relative="1" as="geometry">
            <mxPoint x="351" y="327" as="sourcePoint" />
            <mxPoint x="401" y="277" as="targetPoint" />
          </mxGeometry>
        </mxCell>
        <mxCell id="zRfTMLekbxmqp7DmtpUP-387" value="" style="ellipse;whiteSpace=wrap;html=1;aspect=fixed;fontSize=16;fillColor=#f8cecc;strokeColor=#b85450;" vertex="1" parent="1">
          <mxGeometry x="494" y="188" width="22" height="22" as="geometry" />
        </mxCell>
        <mxCell id="zRfTMLekbxmqp7DmtpUP-388" value="" style="ellipse;whiteSpace=wrap;html=1;aspect=fixed;fontSize=16;fillColor=#f8cecc;strokeColor=#b85450;" vertex="1" parent="1">
          <mxGeometry x="494" y="162" width="22" height="22" as="geometry" />
        </mxCell>
        <mxCell id="zRfTMLekbxmqp7DmtpUP-389" value="" style="ellipse;whiteSpace=wrap;html=1;aspect=fixed;fontSize=16;fillColor=#ffe6cc;strokeColor=#d79b00;" vertex="1" parent="1">
          <mxGeometry x="434" y="136" width="20" height="20" as="geometry" />
        </mxCell>
        <mxCell id="zRfTMLekbxmqp7DmtpUP-390" value="" style="ellipse;whiteSpace=wrap;html=1;aspect=fixed;fontSize=16;fillColor=#ffe6cc;strokeColor=#d79b00;" vertex="1" parent="1">
          <mxGeometry x="434" y="162" width="22" height="22" as="geometry" />
        </mxCell>
        <mxCell id="zRfTMLekbxmqp7DmtpUP-391" value="" style="ellipse;whiteSpace=wrap;html=1;aspect=fixed;fontSize=16;fillColor=#ffe6cc;strokeColor=#d79b00;" vertex="1" parent="1">
          <mxGeometry x="434" y="188" width="22" height="22" as="geometry" />
        </mxCell>
        <mxCell id="zRfTMLekbxmqp7DmtpUP-392" value="" style="ellipse;whiteSpace=wrap;html=1;aspect=fixed;fontSize=16;fillColor=#ffe6cc;strokeColor=#d79b00;" vertex="1" parent="1">
          <mxGeometry x="434" y="214" width="22" height="22" as="geometry" />
        </mxCell>
        <mxCell id="zRfTMLekbxmqp7DmtpUP-393" value="" style="endArrow=none;html=1;rounded=0;fontSize=12;startSize=8;endSize=8;curved=1;entryX=1;entryY=0.5;entryDx=0;entryDy=0;exitX=0;exitY=0.5;exitDx=0;exitDy=0;" edge="1" parent="1" source="zRfTMLekbxmqp7DmtpUP-392" target="zRfTMLekbxmqp7DmtpUP-359">
          <mxGeometry width="50" height="50" relative="1" as="geometry">
            <mxPoint x="390" y="362" as="sourcePoint" />
            <mxPoint x="440" y="312" as="targetPoint" />
          </mxGeometry>
        </mxCell>
        <mxCell id="zRfTMLekbxmqp7DmtpUP-394" value="" style="endArrow=none;html=1;rounded=0;fontSize=12;startSize=8;endSize=8;curved=1;entryX=1;entryY=0.5;entryDx=0;entryDy=0;exitX=0;exitY=0.5;exitDx=0;exitDy=0;" edge="1" parent="1" source="zRfTMLekbxmqp7DmtpUP-389" target="zRfTMLekbxmqp7DmtpUP-360">
          <mxGeometry width="50" height="50" relative="1" as="geometry">
            <mxPoint x="444" y="235" as="sourcePoint" />
            <mxPoint x="405" y="157" as="targetPoint" />
          </mxGeometry>
        </mxCell>
        <mxCell id="zRfTMLekbxmqp7DmtpUP-395" value="" style="endArrow=none;html=1;rounded=0;fontSize=12;startSize=8;endSize=8;curved=1;entryX=1;entryY=0.5;entryDx=0;entryDy=0;exitX=0;exitY=0.5;exitDx=0;exitDy=0;" edge="1" parent="1" source="zRfTMLekbxmqp7DmtpUP-390" target="zRfTMLekbxmqp7DmtpUP-361">
          <mxGeometry width="50" height="50" relative="1" as="geometry">
            <mxPoint x="454" y="245" as="sourcePoint" />
            <mxPoint x="415" y="167" as="targetPoint" />
          </mxGeometry>
        </mxCell>
        <mxCell id="zRfTMLekbxmqp7DmtpUP-396" value="" style="endArrow=none;html=1;rounded=0;fontSize=12;startSize=8;endSize=8;curved=1;entryX=1;entryY=0.5;entryDx=0;entryDy=0;exitX=0;exitY=0.5;exitDx=0;exitDy=0;" edge="1" parent="1" source="zRfTMLekbxmqp7DmtpUP-391" target="zRfTMLekbxmqp7DmtpUP-362">
          <mxGeometry width="50" height="50" relative="1" as="geometry">
            <mxPoint x="464" y="255" as="sourcePoint" />
            <mxPoint x="425" y="177" as="targetPoint" />
          </mxGeometry>
        </mxCell>
        <mxCell id="zRfTMLekbxmqp7DmtpUP-397" value="" style="endArrow=none;html=1;rounded=0;fontSize=12;startSize=8;endSize=8;curved=1;entryX=1;entryY=0.5;entryDx=0;entryDy=0;exitX=0;exitY=0.5;exitDx=0;exitDy=0;" edge="1" parent="1" source="zRfTMLekbxmqp7DmtpUP-392" target="zRfTMLekbxmqp7DmtpUP-361">
          <mxGeometry width="50" height="50" relative="1" as="geometry">
            <mxPoint x="474" y="265" as="sourcePoint" />
            <mxPoint x="435" y="187" as="targetPoint" />
          </mxGeometry>
        </mxCell>
        <mxCell id="zRfTMLekbxmqp7DmtpUP-398" value="" style="endArrow=none;html=1;rounded=0;fontSize=12;startSize=8;endSize=8;curved=1;entryX=1;entryY=0.5;entryDx=0;entryDy=0;exitX=0;exitY=0.5;exitDx=0;exitDy=0;" edge="1" parent="1" source="zRfTMLekbxmqp7DmtpUP-391" target="zRfTMLekbxmqp7DmtpUP-360">
          <mxGeometry width="50" height="50" relative="1" as="geometry">
            <mxPoint x="484" y="275" as="sourcePoint" />
            <mxPoint x="445" y="197" as="targetPoint" />
          </mxGeometry>
        </mxCell>
        <mxCell id="zRfTMLekbxmqp7DmtpUP-399" value="" style="endArrow=none;html=1;rounded=0;fontSize=12;startSize=8;endSize=8;curved=1;entryX=1;entryY=0.5;entryDx=0;entryDy=0;exitX=0;exitY=0.5;exitDx=0;exitDy=0;" edge="1" parent="1" source="zRfTMLekbxmqp7DmtpUP-392" target="zRfTMLekbxmqp7DmtpUP-362">
          <mxGeometry width="50" height="50" relative="1" as="geometry">
            <mxPoint x="494" y="285" as="sourcePoint" />
            <mxPoint x="455" y="207" as="targetPoint" />
          </mxGeometry>
        </mxCell>
        <mxCell id="zRfTMLekbxmqp7DmtpUP-400" value="" style="endArrow=none;html=1;rounded=0;fontSize=12;startSize=8;endSize=8;curved=1;entryX=1;entryY=0.5;entryDx=0;entryDy=0;exitX=0;exitY=0.5;exitDx=0;exitDy=0;" edge="1" parent="1" source="zRfTMLekbxmqp7DmtpUP-390" target="zRfTMLekbxmqp7DmtpUP-362">
          <mxGeometry width="50" height="50" relative="1" as="geometry">
            <mxPoint x="504" y="295" as="sourcePoint" />
            <mxPoint x="465" y="217" as="targetPoint" />
          </mxGeometry>
        </mxCell>
        <mxCell id="zRfTMLekbxmqp7DmtpUP-401" value="" style="endArrow=none;html=1;rounded=0;fontSize=12;startSize=8;endSize=8;curved=1;entryX=1;entryY=0.5;entryDx=0;entryDy=0;exitX=0;exitY=0.5;exitDx=0;exitDy=0;verticalAlign=top;" edge="1" parent="1" source="zRfTMLekbxmqp7DmtpUP-389" target="zRfTMLekbxmqp7DmtpUP-362">
          <mxGeometry width="50" height="50" relative="1" as="geometry">
            <mxPoint x="514" y="305" as="sourcePoint" />
            <mxPoint x="475" y="227" as="targetPoint" />
          </mxGeometry>
        </mxCell>
        <mxCell id="zRfTMLekbxmqp7DmtpUP-402" value="" style="endArrow=none;html=1;rounded=0;fontSize=12;startSize=8;endSize=8;curved=1;entryX=1;entryY=0.5;entryDx=0;entryDy=0;exitX=0;exitY=0.5;exitDx=0;exitDy=0;" edge="1" parent="1" source="zRfTMLekbxmqp7DmtpUP-391" target="zRfTMLekbxmqp7DmtpUP-361">
          <mxGeometry width="50" height="50" relative="1" as="geometry">
            <mxPoint x="524" y="315" as="sourcePoint" />
            <mxPoint x="485" y="237" as="targetPoint" />
          </mxGeometry>
        </mxCell>
        <mxCell id="zRfTMLekbxmqp7DmtpUP-403" value="" style="endArrow=none;html=1;rounded=0;fontSize=12;startSize=8;endSize=8;curved=1;entryX=1;entryY=0.5;entryDx=0;entryDy=0;" edge="1" parent="1" source="zRfTMLekbxmqp7DmtpUP-390" target="zRfTMLekbxmqp7DmtpUP-360">
          <mxGeometry width="50" height="50" relative="1" as="geometry">
            <mxPoint x="534" y="325" as="sourcePoint" />
            <mxPoint x="495" y="247" as="targetPoint" />
          </mxGeometry>
        </mxCell>
        <mxCell id="zRfTMLekbxmqp7DmtpUP-404" value="" style="endArrow=none;html=1;rounded=0;fontSize=12;startSize=8;endSize=8;curved=1;entryX=1;entryY=0.5;entryDx=0;entryDy=0;" edge="1" parent="1" source="zRfTMLekbxmqp7DmtpUP-389" target="zRfTMLekbxmqp7DmtpUP-359">
          <mxGeometry width="50" height="50" relative="1" as="geometry">
            <mxPoint x="544" y="335" as="sourcePoint" />
            <mxPoint x="505" y="257" as="targetPoint" />
          </mxGeometry>
        </mxCell>
        <mxCell id="zRfTMLekbxmqp7DmtpUP-405" value="" style="endArrow=none;html=1;rounded=0;fontSize=12;startSize=8;endSize=8;curved=1;entryX=1;entryY=0.5;entryDx=0;entryDy=0;exitX=0;exitY=0.5;exitDx=0;exitDy=0;" edge="1" parent="1" source="zRfTMLekbxmqp7DmtpUP-392" target="zRfTMLekbxmqp7DmtpUP-360">
          <mxGeometry width="50" height="50" relative="1" as="geometry">
            <mxPoint x="554" y="345" as="sourcePoint" />
            <mxPoint x="515" y="267" as="targetPoint" />
          </mxGeometry>
        </mxCell>
        <mxCell id="zRfTMLekbxmqp7DmtpUP-406" value="" style="endArrow=none;html=1;rounded=0;fontSize=12;startSize=8;endSize=8;curved=1;entryX=1;entryY=0.5;entryDx=0;entryDy=0;exitX=0;exitY=0.5;exitDx=0;exitDy=0;" edge="1" parent="1" source="zRfTMLekbxmqp7DmtpUP-390" target="zRfTMLekbxmqp7DmtpUP-359">
          <mxGeometry width="50" height="50" relative="1" as="geometry">
            <mxPoint x="564" y="355" as="sourcePoint" />
            <mxPoint x="525" y="277" as="targetPoint" />
          </mxGeometry>
        </mxCell>
        <mxCell id="zRfTMLekbxmqp7DmtpUP-407" value="" style="endArrow=none;html=1;rounded=0;fontSize=12;startSize=8;endSize=8;curved=1;entryX=1;entryY=0.5;entryDx=0;entryDy=0;exitX=0;exitY=0.5;exitDx=0;exitDy=0;" edge="1" parent="1" source="zRfTMLekbxmqp7DmtpUP-389" target="zRfTMLekbxmqp7DmtpUP-361">
          <mxGeometry width="50" height="50" relative="1" as="geometry">
            <mxPoint x="448" y="313" as="sourcePoint" />
            <mxPoint x="498" y="263" as="targetPoint" />
          </mxGeometry>
        </mxCell>
        <mxCell id="zRfTMLekbxmqp7DmtpUP-408" value="" style="endArrow=none;html=1;rounded=0;fontSize=12;startSize=8;endSize=8;curved=1;entryX=1;entryY=0.5;entryDx=0;entryDy=0;exitX=0;exitY=0.5;exitDx=0;exitDy=0;" edge="1" parent="1" source="zRfTMLekbxmqp7DmtpUP-391" target="zRfTMLekbxmqp7DmtpUP-359">
          <mxGeometry width="50" height="50" relative="1" as="geometry">
            <mxPoint x="574" y="365" as="sourcePoint" />
            <mxPoint x="535" y="287" as="targetPoint" />
          </mxGeometry>
        </mxCell>
        <mxCell id="zRfTMLekbxmqp7DmtpUP-409" value="" style="endArrow=none;html=1;rounded=0;fontSize=12;startSize=8;endSize=8;curved=1;entryX=1;entryY=0.5;entryDx=0;entryDy=0;exitX=0;exitY=0.5;exitDx=0;exitDy=0;" edge="1" parent="1" source="zRfTMLekbxmqp7DmtpUP-388" target="zRfTMLekbxmqp7DmtpUP-389">
          <mxGeometry width="50" height="50" relative="1" as="geometry">
            <mxPoint x="472" y="288" as="sourcePoint" />
            <mxPoint x="522" y="238" as="targetPoint" />
          </mxGeometry>
        </mxCell>
        <mxCell id="zRfTMLekbxmqp7DmtpUP-410" value="" style="endArrow=none;html=1;rounded=0;fontSize=12;startSize=8;endSize=8;curved=1;entryX=1;entryY=0.5;entryDx=0;entryDy=0;exitX=0;exitY=0.5;exitDx=0;exitDy=0;" edge="1" parent="1" source="zRfTMLekbxmqp7DmtpUP-388" target="zRfTMLekbxmqp7DmtpUP-390">
          <mxGeometry width="50" height="50" relative="1" as="geometry">
            <mxPoint x="504" y="175" as="sourcePoint" />
            <mxPoint x="464" y="156" as="targetPoint" />
          </mxGeometry>
        </mxCell>
        <mxCell id="zRfTMLekbxmqp7DmtpUP-411" value="" style="endArrow=none;html=1;rounded=0;fontSize=12;startSize=8;endSize=8;curved=1;entryX=1;entryY=0.5;entryDx=0;entryDy=0;exitX=0;exitY=0.5;exitDx=0;exitDy=0;" edge="1" parent="1" source="zRfTMLekbxmqp7DmtpUP-388" target="zRfTMLekbxmqp7DmtpUP-391">
          <mxGeometry width="50" height="50" relative="1" as="geometry">
            <mxPoint x="514" y="185" as="sourcePoint" />
            <mxPoint x="474" y="166" as="targetPoint" />
          </mxGeometry>
        </mxCell>
        <mxCell id="zRfTMLekbxmqp7DmtpUP-412" value="" style="endArrow=none;html=1;rounded=0;fontSize=12;startSize=8;endSize=8;curved=1;entryX=1;entryY=0.5;entryDx=0;entryDy=0;exitX=0;exitY=0.5;exitDx=0;exitDy=0;" edge="1" parent="1" source="zRfTMLekbxmqp7DmtpUP-388" target="zRfTMLekbxmqp7DmtpUP-392">
          <mxGeometry width="50" height="50" relative="1" as="geometry">
            <mxPoint x="524" y="195" as="sourcePoint" />
            <mxPoint x="484" y="176" as="targetPoint" />
          </mxGeometry>
        </mxCell>
        <mxCell id="zRfTMLekbxmqp7DmtpUP-413" value="" style="endArrow=none;html=1;rounded=0;fontSize=12;startSize=8;endSize=8;curved=1;entryX=1;entryY=0.5;entryDx=0;entryDy=0;exitX=0;exitY=0.5;exitDx=0;exitDy=0;exitPerimeter=0;" edge="1" parent="1" source="zRfTMLekbxmqp7DmtpUP-387" target="zRfTMLekbxmqp7DmtpUP-390">
          <mxGeometry width="50" height="50" relative="1" as="geometry">
            <mxPoint x="534" y="205" as="sourcePoint" />
            <mxPoint x="494" y="186" as="targetPoint" />
          </mxGeometry>
        </mxCell>
        <mxCell id="zRfTMLekbxmqp7DmtpUP-414" value="" style="endArrow=none;html=1;rounded=0;fontSize=12;startSize=8;endSize=8;curved=1;exitX=0;exitY=0.5;exitDx=0;exitDy=0;entryX=1;entryY=0.5;entryDx=0;entryDy=0;" edge="1" parent="1" source="zRfTMLekbxmqp7DmtpUP-387" target="zRfTMLekbxmqp7DmtpUP-391">
          <mxGeometry width="50" height="50" relative="1" as="geometry">
            <mxPoint x="494.14" y="194" as="sourcePoint" />
            <mxPoint x="455.9962616885026" y="200.2275491120813" as="targetPoint" />
          </mxGeometry>
        </mxCell>
        <mxCell id="zRfTMLekbxmqp7DmtpUP-415" value="" style="endArrow=none;html=1;rounded=0;fontSize=12;startSize=8;endSize=8;curved=1;entryX=1;entryY=0.5;entryDx=0;entryDy=0;exitX=0;exitY=0.5;exitDx=0;exitDy=0;" edge="1" parent="1" source="zRfTMLekbxmqp7DmtpUP-387" target="zRfTMLekbxmqp7DmtpUP-389">
          <mxGeometry width="50" height="50" relative="1" as="geometry">
            <mxPoint x="554" y="225" as="sourcePoint" />
            <mxPoint x="514" y="206" as="targetPoint" />
          </mxGeometry>
        </mxCell>
        <mxCell id="zRfTMLekbxmqp7DmtpUP-416" value="" style="endArrow=none;html=1;rounded=0;fontSize=12;startSize=8;endSize=8;curved=1;entryX=1;entryY=0.5;entryDx=0;entryDy=0;exitX=0;exitY=0.5;exitDx=0;exitDy=0;" edge="1" parent="1" source="zRfTMLekbxmqp7DmtpUP-387" target="zRfTMLekbxmqp7DmtpUP-392">
          <mxGeometry width="50" height="50" relative="1" as="geometry">
            <mxPoint x="564" y="235" as="sourcePoint" />
            <mxPoint x="524" y="216" as="targetPoint" />
          </mxGeometry>
        </mxCell>
      </root>
    </mxGraphModel>
  </diagram>
  <diagram id="RJkHgkEecNIrY77xoMLj" name="Page-2">
    <mxGraphModel dx="1356" dy="933" grid="0" gridSize="10" guides="1" tooltips="1" connect="1" arrows="1" fold="1" page="0" pageScale="1" pageWidth="827" pageHeight="1169" math="0" shadow="0">
      <root>
        <mxCell id="0" />
        <mxCell id="1" parent="0" />
        <mxCell id="cJKPnTcvs8j16l2pU46a-129" value="" style="ellipse;whiteSpace=wrap;html=1;aspect=fixed;fontSize=16;fillColor=#dae8fc;strokeColor=#6c8ebf;" vertex="1" parent="1">
          <mxGeometry x="-161" y="5" width="35" height="35" as="geometry" />
        </mxCell>
        <mxCell id="cJKPnTcvs8j16l2pU46a-132" value="" style="ellipse;whiteSpace=wrap;html=1;aspect=fixed;fontSize=16;fillColor=#dae8fc;strokeColor=#6c8ebf;" vertex="1" parent="1">
          <mxGeometry x="-161" y="44" width="35" height="35" as="geometry" />
        </mxCell>
        <mxCell id="cJKPnTcvs8j16l2pU46a-133" value="" style="ellipse;whiteSpace=wrap;html=1;aspect=fixed;fontSize=16;fillColor=#dae8fc;strokeColor=#6c8ebf;" vertex="1" parent="1">
          <mxGeometry x="-161" y="87" width="35" height="35" as="geometry" />
        </mxCell>
        <mxCell id="cJKPnTcvs8j16l2pU46a-134" value="" style="ellipse;whiteSpace=wrap;html=1;aspect=fixed;fontSize=16;fillColor=#dae8fc;strokeColor=#6c8ebf;" vertex="1" parent="1">
          <mxGeometry x="-161" y="130" width="35" height="35" as="geometry" />
        </mxCell>
        <mxCell id="cJKPnTcvs8j16l2pU46a-135" value="" style="ellipse;whiteSpace=wrap;html=1;aspect=fixed;fontSize=16;fillColor=#dae8fc;strokeColor=#6c8ebf;" vertex="1" parent="1">
          <mxGeometry x="-161" y="173" width="35" height="35" as="geometry" />
        </mxCell>
        <mxCell id="cJKPnTcvs8j16l2pU46a-136" value="" style="ellipse;whiteSpace=wrap;html=1;aspect=fixed;fontSize=16;fillColor=#dae8fc;strokeColor=#6c8ebf;" vertex="1" parent="1">
          <mxGeometry x="-161" y="216" width="35" height="35" as="geometry" />
        </mxCell>
        <mxCell id="cJKPnTcvs8j16l2pU46a-137" value="" style="ellipse;whiteSpace=wrap;html=1;aspect=fixed;fontSize=16;fillColor=#d5e8d4;strokeColor=#82b366;" vertex="1" parent="1">
          <mxGeometry x="-46" y="44" width="35" height="35" as="geometry" />
        </mxCell>
        <mxCell id="cJKPnTcvs8j16l2pU46a-138" value="" style="ellipse;whiteSpace=wrap;html=1;aspect=fixed;fontSize=16;fillColor=#d5e8d4;strokeColor=#82b366;" vertex="1" parent="1">
          <mxGeometry x="-46" y="85" width="35" height="35" as="geometry" />
        </mxCell>
        <mxCell id="cJKPnTcvs8j16l2pU46a-139" value="" style="ellipse;whiteSpace=wrap;html=1;aspect=fixed;fontSize=16;fillColor=#d5e8d4;strokeColor=#82b366;" vertex="1" parent="1">
          <mxGeometry x="-46" y="130" width="35" height="35" as="geometry" />
        </mxCell>
        <mxCell id="cJKPnTcvs8j16l2pU46a-141" value="" style="ellipse;whiteSpace=wrap;html=1;aspect=fixed;fontSize=16;fillColor=#d5e8d4;strokeColor=#82b366;" vertex="1" parent="1">
          <mxGeometry x="-46" y="173" width="35" height="35" as="geometry" />
        </mxCell>
        <mxCell id="cJKPnTcvs8j16l2pU46a-142" value="" style="ellipse;whiteSpace=wrap;html=1;aspect=fixed;fontSize=16;fillColor=#d5e8d4;strokeColor=#82b366;" vertex="1" parent="1">
          <mxGeometry x="45" y="44" width="35" height="35" as="geometry" />
        </mxCell>
        <mxCell id="cJKPnTcvs8j16l2pU46a-143" value="" style="ellipse;whiteSpace=wrap;html=1;aspect=fixed;fontSize=16;fillColor=#d5e8d4;strokeColor=#82b366;" vertex="1" parent="1">
          <mxGeometry x="45" y="85" width="35" height="35" as="geometry" />
        </mxCell>
        <mxCell id="cJKPnTcvs8j16l2pU46a-144" value="" style="ellipse;whiteSpace=wrap;html=1;aspect=fixed;fontSize=16;fillColor=#d5e8d4;strokeColor=#82b366;" vertex="1" parent="1">
          <mxGeometry x="45" y="130" width="35" height="35" as="geometry" />
        </mxCell>
        <mxCell id="cJKPnTcvs8j16l2pU46a-145" value="" style="ellipse;whiteSpace=wrap;html=1;aspect=fixed;fontSize=16;fillColor=#d5e8d4;strokeColor=#82b366;" vertex="1" parent="1">
          <mxGeometry x="45" y="173" width="35" height="35" as="geometry" />
        </mxCell>
        <mxCell id="cJKPnTcvs8j16l2pU46a-146" value="" style="ellipse;whiteSpace=wrap;html=1;aspect=fixed;fontSize=16;fillColor=#d5e8d4;strokeColor=#82b366;" vertex="1" parent="1">
          <mxGeometry x="136" y="44" width="35" height="35" as="geometry" />
        </mxCell>
        <mxCell id="cJKPnTcvs8j16l2pU46a-147" value="" style="ellipse;whiteSpace=wrap;html=1;aspect=fixed;fontSize=16;fillColor=#d5e8d4;strokeColor=#82b366;" vertex="1" parent="1">
          <mxGeometry x="136" y="85" width="35" height="35" as="geometry" />
        </mxCell>
        <mxCell id="cJKPnTcvs8j16l2pU46a-148" value="" style="ellipse;whiteSpace=wrap;html=1;aspect=fixed;fontSize=16;fillColor=#d5e8d4;strokeColor=#82b366;" vertex="1" parent="1">
          <mxGeometry x="136" y="130" width="35" height="35" as="geometry" />
        </mxCell>
        <mxCell id="cJKPnTcvs8j16l2pU46a-149" value="" style="ellipse;whiteSpace=wrap;html=1;aspect=fixed;fontSize=16;fillColor=#d5e8d4;strokeColor=#82b366;" vertex="1" parent="1">
          <mxGeometry x="136" y="173" width="35" height="35" as="geometry" />
        </mxCell>
        <mxCell id="cJKPnTcvs8j16l2pU46a-150" value="" style="endArrow=none;html=1;rounded=0;fontSize=12;startSize=8;endSize=8;curved=1;exitX=1;exitY=0.5;exitDx=0;exitDy=0;entryX=0;entryY=0.5;entryDx=0;entryDy=0;" edge="1" parent="1" source="cJKPnTcvs8j16l2pU46a-129" target="cJKPnTcvs8j16l2pU46a-137">
          <mxGeometry width="50" height="50" relative="1" as="geometry">
            <mxPoint x="-47" y="22" as="sourcePoint" />
            <mxPoint x="3" y="-28" as="targetPoint" />
          </mxGeometry>
        </mxCell>
        <mxCell id="cJKPnTcvs8j16l2pU46a-151" value="" style="endArrow=none;html=1;rounded=0;fontSize=12;startSize=8;endSize=8;curved=1;exitX=1;exitY=0.5;exitDx=0;exitDy=0;entryX=0;entryY=0.5;entryDx=0;entryDy=0;" edge="1" parent="1" source="cJKPnTcvs8j16l2pU46a-132" target="cJKPnTcvs8j16l2pU46a-137">
          <mxGeometry width="50" height="50" relative="1" as="geometry">
            <mxPoint x="-116" y="33" as="sourcePoint" />
            <mxPoint x="-36" y="72" as="targetPoint" />
          </mxGeometry>
        </mxCell>
        <mxCell id="cJKPnTcvs8j16l2pU46a-152" value="" style="endArrow=none;html=1;rounded=0;fontSize=12;startSize=8;endSize=8;curved=1;exitX=1;exitY=0.5;exitDx=0;exitDy=0;entryX=0;entryY=0.5;entryDx=0;entryDy=0;" edge="1" parent="1" source="cJKPnTcvs8j16l2pU46a-133" target="cJKPnTcvs8j16l2pU46a-137">
          <mxGeometry width="50" height="50" relative="1" as="geometry">
            <mxPoint x="-106" y="43" as="sourcePoint" />
            <mxPoint x="-26" y="82" as="targetPoint" />
          </mxGeometry>
        </mxCell>
        <mxCell id="cJKPnTcvs8j16l2pU46a-153" value="" style="endArrow=none;html=1;rounded=0;fontSize=12;startSize=8;endSize=8;curved=1;exitX=1;exitY=0.5;exitDx=0;exitDy=0;entryX=0;entryY=0.5;entryDx=0;entryDy=0;" edge="1" parent="1" source="cJKPnTcvs8j16l2pU46a-134" target="cJKPnTcvs8j16l2pU46a-137">
          <mxGeometry width="50" height="50" relative="1" as="geometry">
            <mxPoint x="-96" y="53" as="sourcePoint" />
            <mxPoint x="-16" y="92" as="targetPoint" />
          </mxGeometry>
        </mxCell>
        <mxCell id="cJKPnTcvs8j16l2pU46a-154" value="" style="endArrow=none;html=1;rounded=0;fontSize=12;startSize=8;endSize=8;curved=1;exitX=1;exitY=0.5;exitDx=0;exitDy=0;entryX=0;entryY=0.5;entryDx=0;entryDy=0;" edge="1" parent="1" source="cJKPnTcvs8j16l2pU46a-135" target="cJKPnTcvs8j16l2pU46a-138">
          <mxGeometry width="50" height="50" relative="1" as="geometry">
            <mxPoint x="-86" y="63" as="sourcePoint" />
            <mxPoint x="-6" y="102" as="targetPoint" />
          </mxGeometry>
        </mxCell>
        <mxCell id="cJKPnTcvs8j16l2pU46a-155" value="" style="endArrow=none;html=1;rounded=0;fontSize=12;startSize=8;endSize=8;curved=1;exitX=1;exitY=0.5;exitDx=0;exitDy=0;entryX=0;entryY=0.5;entryDx=0;entryDy=0;" edge="1" parent="1" source="cJKPnTcvs8j16l2pU46a-134" target="cJKPnTcvs8j16l2pU46a-138">
          <mxGeometry width="50" height="50" relative="1" as="geometry">
            <mxPoint x="-76" y="73" as="sourcePoint" />
            <mxPoint x="4" y="112" as="targetPoint" />
          </mxGeometry>
        </mxCell>
        <mxCell id="cJKPnTcvs8j16l2pU46a-156" value="" style="endArrow=none;html=1;rounded=0;fontSize=12;startSize=8;endSize=8;curved=1;exitX=1;exitY=0.5;exitDx=0;exitDy=0;entryX=0;entryY=0.5;entryDx=0;entryDy=0;" edge="1" parent="1" source="cJKPnTcvs8j16l2pU46a-136" target="cJKPnTcvs8j16l2pU46a-139">
          <mxGeometry width="50" height="50" relative="1" as="geometry">
            <mxPoint x="-66" y="83" as="sourcePoint" />
            <mxPoint x="14" y="122" as="targetPoint" />
          </mxGeometry>
        </mxCell>
        <mxCell id="cJKPnTcvs8j16l2pU46a-157" value="" style="endArrow=none;html=1;rounded=0;fontSize=12;startSize=8;endSize=8;curved=1;exitX=1;exitY=0.5;exitDx=0;exitDy=0;entryX=0;entryY=0.5;entryDx=0;entryDy=0;" edge="1" parent="1" source="cJKPnTcvs8j16l2pU46a-134" target="cJKPnTcvs8j16l2pU46a-139">
          <mxGeometry width="50" height="50" relative="1" as="geometry">
            <mxPoint x="-56" y="93" as="sourcePoint" />
            <mxPoint x="24" y="132" as="targetPoint" />
          </mxGeometry>
        </mxCell>
        <mxCell id="cJKPnTcvs8j16l2pU46a-158" value="" style="endArrow=none;html=1;rounded=0;fontSize=12;startSize=8;endSize=8;curved=1;exitX=1;exitY=0.5;exitDx=0;exitDy=0;entryX=0;entryY=0.5;entryDx=0;entryDy=0;" edge="1" parent="1" source="cJKPnTcvs8j16l2pU46a-132" target="cJKPnTcvs8j16l2pU46a-138">
          <mxGeometry width="50" height="50" relative="1" as="geometry">
            <mxPoint x="-46" y="103" as="sourcePoint" />
            <mxPoint x="34" y="142" as="targetPoint" />
          </mxGeometry>
        </mxCell>
        <mxCell id="cJKPnTcvs8j16l2pU46a-159" value="" style="endArrow=none;html=1;rounded=0;fontSize=12;startSize=8;endSize=8;curved=1;exitX=1;exitY=0.5;exitDx=0;exitDy=0;entryX=0;entryY=0.5;entryDx=0;entryDy=0;" edge="1" parent="1" source="cJKPnTcvs8j16l2pU46a-133" target="cJKPnTcvs8j16l2pU46a-138">
          <mxGeometry width="50" height="50" relative="1" as="geometry">
            <mxPoint x="-36" y="113" as="sourcePoint" />
            <mxPoint x="44" y="152" as="targetPoint" />
          </mxGeometry>
        </mxCell>
        <mxCell id="cJKPnTcvs8j16l2pU46a-160" value="" style="endArrow=none;html=1;rounded=0;fontSize=12;startSize=8;endSize=8;curved=1;exitX=1;exitY=0.5;exitDx=0;exitDy=0;entryX=0;entryY=0.5;entryDx=0;entryDy=0;" edge="1" parent="1" source="cJKPnTcvs8j16l2pU46a-133" target="cJKPnTcvs8j16l2pU46a-139">
          <mxGeometry width="50" height="50" relative="1" as="geometry">
            <mxPoint x="-26" y="123" as="sourcePoint" />
            <mxPoint x="54" y="162" as="targetPoint" />
          </mxGeometry>
        </mxCell>
        <mxCell id="cJKPnTcvs8j16l2pU46a-161" value="" style="endArrow=none;html=1;rounded=0;fontSize=12;startSize=8;endSize=8;curved=1;exitX=1;exitY=0.5;exitDx=0;exitDy=0;entryX=0;entryY=0.5;entryDx=0;entryDy=0;" edge="1" parent="1" source="cJKPnTcvs8j16l2pU46a-134" target="cJKPnTcvs8j16l2pU46a-141">
          <mxGeometry width="50" height="50" relative="1" as="geometry">
            <mxPoint x="-16" y="133" as="sourcePoint" />
            <mxPoint x="64" y="172" as="targetPoint" />
          </mxGeometry>
        </mxCell>
        <mxCell id="cJKPnTcvs8j16l2pU46a-162" value="" style="endArrow=none;html=1;rounded=0;fontSize=12;startSize=8;endSize=8;curved=1;exitX=1;exitY=0.5;exitDx=0;exitDy=0;entryX=0;entryY=0.5;entryDx=0;entryDy=0;" edge="1" parent="1" source="cJKPnTcvs8j16l2pU46a-135" target="cJKPnTcvs8j16l2pU46a-139">
          <mxGeometry width="50" height="50" relative="1" as="geometry">
            <mxPoint x="-6" y="143" as="sourcePoint" />
            <mxPoint x="74" y="182" as="targetPoint" />
          </mxGeometry>
        </mxCell>
        <mxCell id="cJKPnTcvs8j16l2pU46a-163" value="" style="endArrow=none;html=1;rounded=0;fontSize=12;startSize=8;endSize=8;curved=1;exitX=1;exitY=0.5;exitDx=0;exitDy=0;entryX=0;entryY=0.5;entryDx=0;entryDy=0;" edge="1" parent="1" source="cJKPnTcvs8j16l2pU46a-136" target="cJKPnTcvs8j16l2pU46a-141">
          <mxGeometry width="50" height="50" relative="1" as="geometry">
            <mxPoint x="4" y="153" as="sourcePoint" />
            <mxPoint x="84" y="192" as="targetPoint" />
          </mxGeometry>
        </mxCell>
        <mxCell id="cJKPnTcvs8j16l2pU46a-164" value="" style="endArrow=none;html=1;rounded=0;fontSize=12;startSize=8;endSize=8;curved=1;exitX=1;exitY=0.5;exitDx=0;exitDy=0;entryX=0;entryY=0.5;entryDx=0;entryDy=0;" edge="1" parent="1" source="cJKPnTcvs8j16l2pU46a-135" target="cJKPnTcvs8j16l2pU46a-137">
          <mxGeometry width="50" height="50" relative="1" as="geometry">
            <mxPoint x="14" y="163" as="sourcePoint" />
            <mxPoint x="94" y="202" as="targetPoint" />
          </mxGeometry>
        </mxCell>
        <mxCell id="cJKPnTcvs8j16l2pU46a-165" value="" style="endArrow=none;html=1;rounded=0;fontSize=12;startSize=8;endSize=8;curved=1;exitX=1;exitY=0.5;exitDx=0;exitDy=0;entryX=0;entryY=0.5;entryDx=0;entryDy=0;" edge="1" parent="1" source="cJKPnTcvs8j16l2pU46a-129" target="cJKPnTcvs8j16l2pU46a-138">
          <mxGeometry width="50" height="50" relative="1" as="geometry">
            <mxPoint x="24" y="173" as="sourcePoint" />
            <mxPoint x="104" y="212" as="targetPoint" />
          </mxGeometry>
        </mxCell>
        <mxCell id="cJKPnTcvs8j16l2pU46a-166" value="" style="endArrow=none;html=1;rounded=0;fontSize=12;startSize=8;endSize=8;curved=1;exitX=1;exitY=0.5;exitDx=0;exitDy=0;entryX=0;entryY=0.5;entryDx=0;entryDy=0;" edge="1" parent="1" source="cJKPnTcvs8j16l2pU46a-129" target="cJKPnTcvs8j16l2pU46a-141">
          <mxGeometry width="50" height="50" relative="1" as="geometry">
            <mxPoint x="34" y="183" as="sourcePoint" />
            <mxPoint x="114" y="222" as="targetPoint" />
          </mxGeometry>
        </mxCell>
        <mxCell id="cJKPnTcvs8j16l2pU46a-167" value="" style="endArrow=none;html=1;rounded=0;fontSize=12;startSize=8;endSize=8;curved=1;exitX=1;exitY=0.5;exitDx=0;exitDy=0;entryX=0;entryY=0.5;entryDx=0;entryDy=0;" edge="1" parent="1" source="cJKPnTcvs8j16l2pU46a-132" target="cJKPnTcvs8j16l2pU46a-139">
          <mxGeometry width="50" height="50" relative="1" as="geometry">
            <mxPoint x="44" y="193" as="sourcePoint" />
            <mxPoint x="124" y="232" as="targetPoint" />
          </mxGeometry>
        </mxCell>
        <mxCell id="cJKPnTcvs8j16l2pU46a-168" value="" style="endArrow=none;html=1;rounded=0;fontSize=12;startSize=8;endSize=8;curved=1;exitX=1;exitY=0.5;exitDx=0;exitDy=0;entryX=0;entryY=0.5;entryDx=0;entryDy=0;" edge="1" parent="1" source="cJKPnTcvs8j16l2pU46a-133" target="cJKPnTcvs8j16l2pU46a-141">
          <mxGeometry width="50" height="50" relative="1" as="geometry">
            <mxPoint x="54" y="203" as="sourcePoint" />
            <mxPoint x="134" y="242" as="targetPoint" />
          </mxGeometry>
        </mxCell>
        <mxCell id="cJKPnTcvs8j16l2pU46a-169" value="" style="endArrow=none;html=1;rounded=0;fontSize=12;startSize=8;endSize=8;curved=1;exitX=1;exitY=0.5;exitDx=0;exitDy=0;entryX=0;entryY=0.5;entryDx=0;entryDy=0;" edge="1" parent="1" source="cJKPnTcvs8j16l2pU46a-129" target="cJKPnTcvs8j16l2pU46a-139">
          <mxGeometry width="50" height="50" relative="1" as="geometry">
            <mxPoint x="64" y="213" as="sourcePoint" />
            <mxPoint x="144" y="252" as="targetPoint" />
          </mxGeometry>
        </mxCell>
        <mxCell id="cJKPnTcvs8j16l2pU46a-171" value="" style="endArrow=none;html=1;rounded=0;fontSize=12;startSize=8;endSize=8;curved=1;entryX=0;entryY=0.5;entryDx=0;entryDy=0;exitX=1;exitY=0.5;exitDx=0;exitDy=0;" edge="1" parent="1" source="cJKPnTcvs8j16l2pU46a-136" target="cJKPnTcvs8j16l2pU46a-138">
          <mxGeometry width="50" height="50" relative="1" as="geometry">
            <mxPoint x="84" y="233" as="sourcePoint" />
            <mxPoint x="164" y="272" as="targetPoint" />
          </mxGeometry>
        </mxCell>
        <mxCell id="cJKPnTcvs8j16l2pU46a-172" value="" style="endArrow=none;html=1;rounded=0;fontSize=12;startSize=8;endSize=8;curved=1;exitX=1;exitY=0.5;exitDx=0;exitDy=0;entryX=0;entryY=0.5;entryDx=0;entryDy=0;" edge="1" parent="1" source="cJKPnTcvs8j16l2pU46a-136" target="cJKPnTcvs8j16l2pU46a-137">
          <mxGeometry width="50" height="50" relative="1" as="geometry">
            <mxPoint x="-122" y="234" as="sourcePoint" />
            <mxPoint x="178" y="282.5" as="targetPoint" />
          </mxGeometry>
        </mxCell>
        <mxCell id="cJKPnTcvs8j16l2pU46a-173" value="" style="endArrow=none;html=1;rounded=0;fontSize=12;startSize=8;endSize=8;curved=1;exitX=1;exitY=0.5;exitDx=0;exitDy=0;entryX=0;entryY=0.5;entryDx=0;entryDy=0;" edge="1" parent="1" source="cJKPnTcvs8j16l2pU46a-135" target="cJKPnTcvs8j16l2pU46a-141">
          <mxGeometry width="50" height="50" relative="1" as="geometry">
            <mxPoint x="104" y="253" as="sourcePoint" />
            <mxPoint x="184" y="292" as="targetPoint" />
          </mxGeometry>
        </mxCell>
        <mxCell id="cJKPnTcvs8j16l2pU46a-182" value="" style="endArrow=none;html=1;rounded=0;fontSize=12;startSize=8;endSize=8;curved=1;exitX=1;exitY=0.5;exitDx=0;exitDy=0;entryX=0;entryY=0.5;entryDx=0;entryDy=0;" edge="1" parent="1" source="cJKPnTcvs8j16l2pU46a-137" target="cJKPnTcvs8j16l2pU46a-142">
          <mxGeometry width="50" height="50" relative="1" as="geometry">
            <mxPoint x="202" y="173" as="sourcePoint" />
            <mxPoint x="252" y="123" as="targetPoint" />
          </mxGeometry>
        </mxCell>
        <mxCell id="cJKPnTcvs8j16l2pU46a-183" value="" style="endArrow=none;html=1;rounded=0;fontSize=12;startSize=8;endSize=8;curved=1;exitX=1;exitY=0.5;exitDx=0;exitDy=0;entryX=0;entryY=0.5;entryDx=0;entryDy=0;" edge="1" parent="1" source="cJKPnTcvs8j16l2pU46a-138" target="cJKPnTcvs8j16l2pU46a-143">
          <mxGeometry width="50" height="50" relative="1" as="geometry">
            <mxPoint x="183" y="198" as="sourcePoint" />
            <mxPoint x="233" y="148" as="targetPoint" />
          </mxGeometry>
        </mxCell>
        <mxCell id="cJKPnTcvs8j16l2pU46a-188" value="" style="endArrow=none;html=1;rounded=0;fontSize=12;startSize=8;endSize=8;curved=1;exitX=1;exitY=0.5;exitDx=0;exitDy=0;entryX=0;entryY=0.5;entryDx=0;entryDy=0;" edge="1" parent="1" source="cJKPnTcvs8j16l2pU46a-139" target="cJKPnTcvs8j16l2pU46a-144">
          <mxGeometry width="50" height="50" relative="1" as="geometry">
            <mxPoint x="-1" y="113" as="sourcePoint" />
            <mxPoint x="55" y="113" as="targetPoint" />
          </mxGeometry>
        </mxCell>
        <mxCell id="cJKPnTcvs8j16l2pU46a-189" value="" style="endArrow=none;html=1;rounded=0;fontSize=12;startSize=8;endSize=8;curved=1;exitX=1;exitY=0.5;exitDx=0;exitDy=0;entryX=0;entryY=0.5;entryDx=0;entryDy=0;" edge="1" parent="1" source="cJKPnTcvs8j16l2pU46a-141" target="cJKPnTcvs8j16l2pU46a-145">
          <mxGeometry width="50" height="50" relative="1" as="geometry">
            <mxPoint x="9" y="123" as="sourcePoint" />
            <mxPoint x="65" y="123" as="targetPoint" />
          </mxGeometry>
        </mxCell>
        <mxCell id="cJKPnTcvs8j16l2pU46a-190" value="" style="endArrow=none;html=1;rounded=0;fontSize=12;startSize=8;endSize=8;curved=1;exitX=1;exitY=0.5;exitDx=0;exitDy=0;entryX=0;entryY=0.5;entryDx=0;entryDy=0;" edge="1" parent="1" source="cJKPnTcvs8j16l2pU46a-137" target="cJKPnTcvs8j16l2pU46a-144">
          <mxGeometry width="50" height="50" relative="1" as="geometry">
            <mxPoint x="19" y="133" as="sourcePoint" />
            <mxPoint x="75" y="133" as="targetPoint" />
          </mxGeometry>
        </mxCell>
        <mxCell id="cJKPnTcvs8j16l2pU46a-191" value="" style="endArrow=none;html=1;rounded=0;fontSize=12;startSize=8;endSize=8;curved=1;exitX=1;exitY=0.5;exitDx=0;exitDy=0;entryX=0;entryY=0.5;entryDx=0;entryDy=0;" edge="1" parent="1" source="cJKPnTcvs8j16l2pU46a-137" target="cJKPnTcvs8j16l2pU46a-143">
          <mxGeometry width="50" height="50" relative="1" as="geometry">
            <mxPoint x="29" y="143" as="sourcePoint" />
            <mxPoint x="85" y="143" as="targetPoint" />
          </mxGeometry>
        </mxCell>
        <mxCell id="cJKPnTcvs8j16l2pU46a-192" value="" style="endArrow=none;html=1;rounded=0;fontSize=12;startSize=8;endSize=8;curved=1;exitX=1;exitY=0.5;exitDx=0;exitDy=0;entryX=0;entryY=0.5;entryDx=0;entryDy=0;" edge="1" parent="1" source="cJKPnTcvs8j16l2pU46a-138" target="cJKPnTcvs8j16l2pU46a-145">
          <mxGeometry width="50" height="50" relative="1" as="geometry">
            <mxPoint x="39" y="153" as="sourcePoint" />
            <mxPoint x="95" y="153" as="targetPoint" />
          </mxGeometry>
        </mxCell>
        <mxCell id="cJKPnTcvs8j16l2pU46a-193" value="" style="endArrow=none;html=1;rounded=0;fontSize=12;startSize=8;endSize=8;curved=1;exitX=1;exitY=0.5;exitDx=0;exitDy=0;entryX=0;entryY=0.5;entryDx=0;entryDy=0;" edge="1" parent="1" source="cJKPnTcvs8j16l2pU46a-139" target="cJKPnTcvs8j16l2pU46a-145">
          <mxGeometry width="50" height="50" relative="1" as="geometry">
            <mxPoint x="49" y="163" as="sourcePoint" />
            <mxPoint x="105" y="163" as="targetPoint" />
          </mxGeometry>
        </mxCell>
        <mxCell id="cJKPnTcvs8j16l2pU46a-194" value="" style="endArrow=none;html=1;rounded=0;fontSize=12;startSize=8;endSize=8;curved=1;exitX=1;exitY=0.5;exitDx=0;exitDy=0;entryX=0;entryY=0.5;entryDx=0;entryDy=0;" edge="1" parent="1" source="cJKPnTcvs8j16l2pU46a-141" target="cJKPnTcvs8j16l2pU46a-144">
          <mxGeometry width="50" height="50" relative="1" as="geometry">
            <mxPoint x="59" y="173" as="sourcePoint" />
            <mxPoint x="115" y="173" as="targetPoint" />
          </mxGeometry>
        </mxCell>
        <mxCell id="cJKPnTcvs8j16l2pU46a-195" value="" style="endArrow=none;html=1;rounded=0;fontSize=12;startSize=8;endSize=8;curved=1;exitX=1;exitY=0.5;exitDx=0;exitDy=0;entryX=0;entryY=0.5;entryDx=0;entryDy=0;" edge="1" parent="1" source="cJKPnTcvs8j16l2pU46a-141" target="cJKPnTcvs8j16l2pU46a-143">
          <mxGeometry width="50" height="50" relative="1" as="geometry">
            <mxPoint x="69" y="183" as="sourcePoint" />
            <mxPoint x="125" y="183" as="targetPoint" />
          </mxGeometry>
        </mxCell>
        <mxCell id="cJKPnTcvs8j16l2pU46a-196" value="" style="endArrow=none;html=1;rounded=0;fontSize=12;startSize=8;endSize=8;curved=1;exitX=1;exitY=0.5;exitDx=0;exitDy=0;entryX=0;entryY=0.5;entryDx=0;entryDy=0;" edge="1" parent="1" source="cJKPnTcvs8j16l2pU46a-141" target="cJKPnTcvs8j16l2pU46a-142">
          <mxGeometry width="50" height="50" relative="1" as="geometry">
            <mxPoint x="79" y="193" as="sourcePoint" />
            <mxPoint x="135" y="193" as="targetPoint" />
          </mxGeometry>
        </mxCell>
        <mxCell id="cJKPnTcvs8j16l2pU46a-197" value="" style="endArrow=none;html=1;rounded=0;fontSize=12;startSize=8;endSize=8;curved=1;exitX=1;exitY=0.5;exitDx=0;exitDy=0;entryX=0;entryY=0.5;entryDx=0;entryDy=0;" edge="1" parent="1" source="cJKPnTcvs8j16l2pU46a-138" target="cJKPnTcvs8j16l2pU46a-144">
          <mxGeometry width="50" height="50" relative="1" as="geometry">
            <mxPoint x="89" y="203" as="sourcePoint" />
            <mxPoint x="145" y="203" as="targetPoint" />
          </mxGeometry>
        </mxCell>
        <mxCell id="cJKPnTcvs8j16l2pU46a-198" value="" style="endArrow=none;html=1;rounded=0;fontSize=12;startSize=8;endSize=8;curved=1;exitX=1;exitY=0.5;exitDx=0;exitDy=0;entryX=0;entryY=0.5;entryDx=0;entryDy=0;" edge="1" parent="1" source="cJKPnTcvs8j16l2pU46a-138" target="cJKPnTcvs8j16l2pU46a-142">
          <mxGeometry width="50" height="50" relative="1" as="geometry">
            <mxPoint x="99" y="213" as="sourcePoint" />
            <mxPoint x="155" y="213" as="targetPoint" />
          </mxGeometry>
        </mxCell>
        <mxCell id="cJKPnTcvs8j16l2pU46a-199" value="" style="endArrow=none;html=1;rounded=0;fontSize=12;startSize=8;endSize=8;curved=1;exitX=1;exitY=0.5;exitDx=0;exitDy=0;entryX=0;entryY=0.5;entryDx=0;entryDy=0;" edge="1" parent="1" source="cJKPnTcvs8j16l2pU46a-137" target="cJKPnTcvs8j16l2pU46a-145">
          <mxGeometry width="50" height="50" relative="1" as="geometry">
            <mxPoint x="-1" y="113" as="sourcePoint" />
            <mxPoint x="55" y="72" as="targetPoint" />
          </mxGeometry>
        </mxCell>
        <mxCell id="cJKPnTcvs8j16l2pU46a-200" value="" style="endArrow=none;html=1;rounded=0;fontSize=12;startSize=8;endSize=8;curved=1;entryX=1;entryY=0.5;entryDx=0;entryDy=0;exitX=0;exitY=0.5;exitDx=0;exitDy=0;" edge="1" parent="1" source="cJKPnTcvs8j16l2pU46a-143" target="cJKPnTcvs8j16l2pU46a-139">
          <mxGeometry width="50" height="50" relative="1" as="geometry">
            <mxPoint x="149" y="132" as="sourcePoint" />
            <mxPoint x="65" y="82" as="targetPoint" />
          </mxGeometry>
        </mxCell>
        <mxCell id="cJKPnTcvs8j16l2pU46a-201" value="" style="endArrow=none;html=1;rounded=0;fontSize=12;startSize=8;endSize=8;curved=1;exitX=1;exitY=0.5;exitDx=0;exitDy=0;entryX=0;entryY=0.5;entryDx=0;entryDy=0;" edge="1" parent="1" source="cJKPnTcvs8j16l2pU46a-139" target="cJKPnTcvs8j16l2pU46a-142">
          <mxGeometry width="50" height="50" relative="1" as="geometry">
            <mxPoint x="19" y="133" as="sourcePoint" />
            <mxPoint x="75" y="92" as="targetPoint" />
          </mxGeometry>
        </mxCell>
        <mxCell id="cJKPnTcvs8j16l2pU46a-203" value="" style="endArrow=none;html=1;rounded=0;fontSize=12;startSize=8;endSize=8;curved=1;entryX=0;entryY=0.5;entryDx=0;entryDy=0;" edge="1" parent="1" target="cJKPnTcvs8j16l2pU46a-146">
          <mxGeometry width="50" height="50" relative="1" as="geometry">
            <mxPoint x="80" y="61" as="sourcePoint" />
            <mxPoint x="136" y="61.17" as="targetPoint" />
          </mxGeometry>
        </mxCell>
        <mxCell id="cJKPnTcvs8j16l2pU46a-204" value="" style="endArrow=none;html=1;rounded=0;fontSize=12;startSize=8;endSize=8;curved=1;exitX=1;exitY=0.5;exitDx=0;exitDy=0;entryX=0;entryY=0.5;entryDx=0;entryDy=0;" edge="1" parent="1" source="cJKPnTcvs8j16l2pU46a-143" target="cJKPnTcvs8j16l2pU46a-147">
          <mxGeometry width="50" height="50" relative="1" as="geometry">
            <mxPoint x="9" y="82" as="sourcePoint" />
            <mxPoint x="65" y="82" as="targetPoint" />
          </mxGeometry>
        </mxCell>
        <mxCell id="cJKPnTcvs8j16l2pU46a-205" value="" style="endArrow=none;html=1;rounded=0;fontSize=12;startSize=8;endSize=8;curved=1;exitX=1;exitY=0.5;exitDx=0;exitDy=0;entryX=0;entryY=0.5;entryDx=0;entryDy=0;" edge="1" parent="1" source="cJKPnTcvs8j16l2pU46a-144" target="cJKPnTcvs8j16l2pU46a-148">
          <mxGeometry width="50" height="50" relative="1" as="geometry">
            <mxPoint x="19" y="92" as="sourcePoint" />
            <mxPoint x="75" y="92" as="targetPoint" />
          </mxGeometry>
        </mxCell>
        <mxCell id="cJKPnTcvs8j16l2pU46a-206" value="" style="endArrow=none;html=1;rounded=0;fontSize=12;startSize=8;endSize=8;curved=1;exitX=1;exitY=0.5;exitDx=0;exitDy=0;entryX=0;entryY=0.5;entryDx=0;entryDy=0;" edge="1" parent="1" source="cJKPnTcvs8j16l2pU46a-145" target="cJKPnTcvs8j16l2pU46a-149">
          <mxGeometry width="50" height="50" relative="1" as="geometry">
            <mxPoint x="29" y="102" as="sourcePoint" />
            <mxPoint x="85" y="102" as="targetPoint" />
          </mxGeometry>
        </mxCell>
        <mxCell id="cJKPnTcvs8j16l2pU46a-207" value="" style="endArrow=none;html=1;rounded=0;fontSize=12;startSize=8;endSize=8;curved=1;exitX=1;exitY=0.5;exitDx=0;exitDy=0;entryX=0;entryY=0.5;entryDx=0;entryDy=0;" edge="1" parent="1" source="cJKPnTcvs8j16l2pU46a-144" target="cJKPnTcvs8j16l2pU46a-147">
          <mxGeometry width="50" height="50" relative="1" as="geometry">
            <mxPoint x="39" y="112" as="sourcePoint" />
            <mxPoint x="95" y="112" as="targetPoint" />
          </mxGeometry>
        </mxCell>
        <mxCell id="cJKPnTcvs8j16l2pU46a-208" value="" style="endArrow=none;html=1;rounded=0;fontSize=12;startSize=8;endSize=8;curved=1;exitX=1;exitY=0.5;exitDx=0;exitDy=0;entryX=0;entryY=0.5;entryDx=0;entryDy=0;" edge="1" parent="1" source="cJKPnTcvs8j16l2pU46a-145" target="cJKPnTcvs8j16l2pU46a-148">
          <mxGeometry width="50" height="50" relative="1" as="geometry">
            <mxPoint x="49" y="122" as="sourcePoint" />
            <mxPoint x="105" y="122" as="targetPoint" />
          </mxGeometry>
        </mxCell>
        <mxCell id="cJKPnTcvs8j16l2pU46a-209" value="" style="endArrow=none;html=1;rounded=0;fontSize=12;startSize=8;endSize=8;curved=1;exitX=1;exitY=0.5;exitDx=0;exitDy=0;entryX=0;entryY=0.5;entryDx=0;entryDy=0;" edge="1" parent="1" source="cJKPnTcvs8j16l2pU46a-143" target="cJKPnTcvs8j16l2pU46a-146">
          <mxGeometry width="50" height="50" relative="1" as="geometry">
            <mxPoint x="59" y="132" as="sourcePoint" />
            <mxPoint x="115" y="132" as="targetPoint" />
          </mxGeometry>
        </mxCell>
        <mxCell id="cJKPnTcvs8j16l2pU46a-210" value="" style="endArrow=none;html=1;rounded=0;fontSize=12;startSize=8;endSize=8;curved=1;exitX=1;exitY=0.5;exitDx=0;exitDy=0;entryX=0;entryY=0.5;entryDx=0;entryDy=0;" edge="1" parent="1" source="cJKPnTcvs8j16l2pU46a-142" target="cJKPnTcvs8j16l2pU46a-147">
          <mxGeometry width="50" height="50" relative="1" as="geometry">
            <mxPoint x="69" y="142" as="sourcePoint" />
            <mxPoint x="125" y="142" as="targetPoint" />
          </mxGeometry>
        </mxCell>
        <mxCell id="cJKPnTcvs8j16l2pU46a-211" value="" style="endArrow=none;html=1;rounded=0;fontSize=12;startSize=8;endSize=8;curved=1;exitX=1;exitY=0.5;exitDx=0;exitDy=0;entryX=0;entryY=0.5;entryDx=0;entryDy=0;" edge="1" parent="1" source="cJKPnTcvs8j16l2pU46a-143" target="cJKPnTcvs8j16l2pU46a-148">
          <mxGeometry width="50" height="50" relative="1" as="geometry">
            <mxPoint x="79" y="152" as="sourcePoint" />
            <mxPoint x="135" y="152" as="targetPoint" />
          </mxGeometry>
        </mxCell>
        <mxCell id="cJKPnTcvs8j16l2pU46a-212" value="" style="endArrow=none;html=1;rounded=0;fontSize=12;startSize=8;endSize=8;curved=1;exitX=1;exitY=0.5;exitDx=0;exitDy=0;entryX=0;entryY=0.5;entryDx=0;entryDy=0;" edge="1" parent="1" source="cJKPnTcvs8j16l2pU46a-144" target="cJKPnTcvs8j16l2pU46a-149">
          <mxGeometry width="50" height="50" relative="1" as="geometry">
            <mxPoint x="89" y="162" as="sourcePoint" />
            <mxPoint x="145" y="162" as="targetPoint" />
          </mxGeometry>
        </mxCell>
        <mxCell id="cJKPnTcvs8j16l2pU46a-213" value="" style="endArrow=none;html=1;rounded=0;fontSize=12;startSize=8;endSize=8;curved=1;exitX=1;exitY=0.5;exitDx=0;exitDy=0;entryX=0;entryY=0.5;entryDx=0;entryDy=0;" edge="1" parent="1" source="cJKPnTcvs8j16l2pU46a-145" target="cJKPnTcvs8j16l2pU46a-147">
          <mxGeometry width="50" height="50" relative="1" as="geometry">
            <mxPoint x="99" y="172" as="sourcePoint" />
            <mxPoint x="155" y="172" as="targetPoint" />
          </mxGeometry>
        </mxCell>
        <mxCell id="cJKPnTcvs8j16l2pU46a-214" value="" style="endArrow=none;html=1;rounded=0;fontSize=12;startSize=8;endSize=8;curved=1;exitX=1;exitY=0.5;exitDx=0;exitDy=0;entryX=0;entryY=0.5;entryDx=0;entryDy=0;" edge="1" parent="1" source="cJKPnTcvs8j16l2pU46a-145" target="cJKPnTcvs8j16l2pU46a-146">
          <mxGeometry width="50" height="50" relative="1" as="geometry">
            <mxPoint x="109" y="182" as="sourcePoint" />
            <mxPoint x="165" y="182" as="targetPoint" />
          </mxGeometry>
        </mxCell>
        <mxCell id="cJKPnTcvs8j16l2pU46a-215" value="" style="endArrow=none;html=1;rounded=0;fontSize=12;startSize=8;endSize=8;curved=1;exitX=1;exitY=0.5;exitDx=0;exitDy=0;entryX=0;entryY=0.5;entryDx=0;entryDy=0;" edge="1" parent="1" source="cJKPnTcvs8j16l2pU46a-144" target="cJKPnTcvs8j16l2pU46a-146">
          <mxGeometry width="50" height="50" relative="1" as="geometry">
            <mxPoint x="119" y="192" as="sourcePoint" />
            <mxPoint x="175" y="192" as="targetPoint" />
          </mxGeometry>
        </mxCell>
        <mxCell id="cJKPnTcvs8j16l2pU46a-216" value="" style="endArrow=none;html=1;rounded=0;fontSize=12;startSize=8;endSize=8;curved=1;exitX=1;exitY=0.5;exitDx=0;exitDy=0;entryX=0;entryY=0.5;entryDx=0;entryDy=0;" edge="1" parent="1" source="cJKPnTcvs8j16l2pU46a-143" target="cJKPnTcvs8j16l2pU46a-149">
          <mxGeometry width="50" height="50" relative="1" as="geometry">
            <mxPoint x="129" y="202" as="sourcePoint" />
            <mxPoint x="185" y="202" as="targetPoint" />
          </mxGeometry>
        </mxCell>
        <mxCell id="cJKPnTcvs8j16l2pU46a-217" value="" style="endArrow=none;html=1;rounded=0;fontSize=12;startSize=8;endSize=8;curved=1;exitX=1;exitY=0.5;exitDx=0;exitDy=0;entryX=0;entryY=0.5;entryDx=0;entryDy=0;" edge="1" parent="1" source="cJKPnTcvs8j16l2pU46a-142" target="cJKPnTcvs8j16l2pU46a-148">
          <mxGeometry width="50" height="50" relative="1" as="geometry">
            <mxPoint x="139" y="212" as="sourcePoint" />
            <mxPoint x="195" y="212" as="targetPoint" />
          </mxGeometry>
        </mxCell>
        <mxCell id="cJKPnTcvs8j16l2pU46a-218" value="" style="endArrow=none;html=1;rounded=0;fontSize=12;startSize=8;endSize=8;curved=1;exitX=1;exitY=0.5;exitDx=0;exitDy=0;entryX=0;entryY=0.5;entryDx=0;entryDy=0;" edge="1" parent="1" source="cJKPnTcvs8j16l2pU46a-142" target="cJKPnTcvs8j16l2pU46a-149">
          <mxGeometry width="50" height="50" relative="1" as="geometry">
            <mxPoint x="149" y="222" as="sourcePoint" />
            <mxPoint x="205" y="222" as="targetPoint" />
          </mxGeometry>
        </mxCell>
        <mxCell id="cJKPnTcvs8j16l2pU46a-219" value="" style="ellipse;whiteSpace=wrap;html=1;aspect=fixed;fontSize=16;fillColor=#f8cecc;strokeColor=#b85450;" vertex="1" parent="1">
          <mxGeometry x="237" y="102" width="35" height="35" as="geometry" />
        </mxCell>
        <mxCell id="cJKPnTcvs8j16l2pU46a-220" value="" style="endArrow=none;html=1;rounded=0;fontSize=12;startSize=8;endSize=8;curved=1;exitX=1;exitY=0.5;exitDx=0;exitDy=0;entryX=0;entryY=0.5;entryDx=0;entryDy=0;" edge="1" parent="1" source="cJKPnTcvs8j16l2pU46a-146" target="cJKPnTcvs8j16l2pU46a-219">
          <mxGeometry width="50" height="50" relative="1" as="geometry">
            <mxPoint x="235" y="83" as="sourcePoint" />
            <mxPoint x="285" y="33" as="targetPoint" />
          </mxGeometry>
        </mxCell>
        <mxCell id="cJKPnTcvs8j16l2pU46a-221" value="" style="endArrow=none;html=1;rounded=0;fontSize=12;startSize=8;endSize=8;curved=1;exitX=1;exitY=0.5;exitDx=0;exitDy=0;entryX=0;entryY=0.5;entryDx=0;entryDy=0;" edge="1" parent="1" source="cJKPnTcvs8j16l2pU46a-147" target="cJKPnTcvs8j16l2pU46a-219">
          <mxGeometry width="50" height="50" relative="1" as="geometry">
            <mxPoint x="316" y="71" as="sourcePoint" />
            <mxPoint x="366" y="21" as="targetPoint" />
          </mxGeometry>
        </mxCell>
        <mxCell id="cJKPnTcvs8j16l2pU46a-222" value="" style="endArrow=none;html=1;rounded=0;fontSize=12;startSize=8;endSize=8;curved=1;entryX=0;entryY=0.5;entryDx=0;entryDy=0;exitX=1;exitY=0.5;exitDx=0;exitDy=0;" edge="1" parent="1" source="cJKPnTcvs8j16l2pU46a-148" target="cJKPnTcvs8j16l2pU46a-219">
          <mxGeometry width="50" height="50" relative="1" as="geometry">
            <mxPoint x="233" y="266" as="sourcePoint" />
            <mxPoint x="283" y="216" as="targetPoint" />
          </mxGeometry>
        </mxCell>
        <mxCell id="cJKPnTcvs8j16l2pU46a-223" value="" style="endArrow=none;html=1;rounded=0;fontSize=12;startSize=8;endSize=8;curved=1;entryX=0;entryY=0.5;entryDx=0;entryDy=0;exitX=1;exitY=0.5;exitDx=0;exitDy=0;" edge="1" parent="1" source="cJKPnTcvs8j16l2pU46a-149" target="cJKPnTcvs8j16l2pU46a-219">
          <mxGeometry width="50" height="50" relative="1" as="geometry">
            <mxPoint x="215" y="230" as="sourcePoint" />
            <mxPoint x="265" y="180" as="targetPoint" />
          </mxGeometry>
        </mxCell>
        <mxCell id="cJKPnTcvs8j16l2pU46a-224" value="Input Layer" style="rounded=0;whiteSpace=wrap;html=1;fontSize=16;shadow=0;dashed=1;dashPattern=1 2;verticalAlign=top;fillColor=none;strokeColor=#d6b656;" vertex="1" parent="1">
          <mxGeometry x="-191" y="-29" width="95" height="305" as="geometry" />
        </mxCell>
        <mxCell id="cJKPnTcvs8j16l2pU46a-225" value="Hidden Layer" style="rounded=0;whiteSpace=wrap;html=1;fontSize=16;shadow=0;dashed=1;dashPattern=1 2;verticalAlign=top;fillColor=none;strokeColor=#d6b656;" vertex="1" parent="1">
          <mxGeometry x="-71" y="-30" width="260" height="307" as="geometry" />
        </mxCell>
        <mxCell id="cJKPnTcvs8j16l2pU46a-226" value="Output Layer" style="rounded=0;whiteSpace=wrap;html=1;fontSize=16;shadow=0;dashed=1;dashPattern=1 2;verticalAlign=top;fillColor=none;strokeColor=#d6b656;" vertex="1" parent="1">
          <mxGeometry x="204.75" y="-29" width="99.5" height="305" as="geometry" />
        </mxCell>
      </root>
    </mxGraphModel>
  </diagram>
</mxfile>
